<?xml version="1.0" encoding="utf-8"?>
<svg width="24" height="24" viewBox="0 0 24 24" fill="none" xmlns="http://www.w3.org/2000/svg">
  <g>
    <path d="M1.6 0C1.03995 0 0.75992 0 0.54601 0.10899C0.35785 0.20487 0.20487 0.35785 0.10899 0.54601C0 0.75992 0 1.03995 0 1.6C0 1.6 0 5.4 0 5.4C0 5.96005 0 6.24008 0.10899 6.45399C0.20487 6.64215 0.35785 6.79513 0.54601 6.89101C0.75992 7 1.03995 7 1.6 7C1.6 7 5.4 7 5.4 7C5.96005 7 6.24008 7 6.45399 6.89101C6.64215 6.79513 6.79513 6.64215 6.89101 6.45399C7 6.24008 7 5.96005 7 5.4C7 5.4 7 1.6 7 1.6C7 1.03995 7 0.75992 6.89101 0.54601C6.79513 0.35785 6.64215 0.20487 6.45399 0.10899C6.24008 0 5.96005 0 5.4 0C5.4 0 1.6 0 1.6 0Z" fill="none" stroke-width="2" stroke="#D9E3E3" stroke-linecap="round" stroke-linejoin="round" transform="translate(3 3)" />
    <path d="M1.6 0C1.0399 0 0.7599 0 0.546 0.10899C0.3578 0.20487 0.2049 0.35785 0.109 0.54601C0 0.75992 0 1.03995 0 1.6C0 1.6 0 5.4 0 5.4C0 5.96005 0 6.24008 0.109 6.45399C0.2049 6.64215 0.3578 6.79513 0.546 6.89101C0.7599 7 1.0399 7 1.6 7C1.6 7 5.4 7 5.4 7C5.9601 7 6.2401 7 6.454 6.89101C6.6422 6.79513 6.7951 6.64215 6.891 6.45399C7 6.24008 7 5.96005 7 5.4C7 5.4 7 1.6 7 1.6C7 1.03995 7 0.75992 6.891 0.54601C6.7951 0.35785 6.6422 0.20487 6.454 0.10899C6.2401 0 5.9601 0 5.4 0C5.4 0 1.6 0 1.6 0Z" fill="none" stroke-width="2" stroke="#D9E3E3" stroke-linecap="round" stroke-linejoin="round" transform="translate(14 3)" />
    <path d="M1.6 0C1.0399 0 0.7599 0 0.546 0.109C0.3578 0.2049 0.2049 0.3578 0.109 0.546C0 0.7599 0 1.0399 0 1.6C0 1.6 0 5.4 0 5.4C0 5.9601 0 6.2401 0.109 6.454C0.2049 6.6422 0.3578 6.7951 0.546 6.891C0.7599 7 1.0399 7 1.6 7C1.6 7 5.4 7 5.4 7C5.9601 7 6.2401 7 6.454 6.891C6.6422 6.7951 6.7951 6.6422 6.891 6.454C7 6.2401 7 5.9601 7 5.4C7 5.4 7 1.6 7 1.6C7 1.0399 7 0.7599 6.891 0.546C6.7951 0.3578 6.6422 0.2049 6.454 0.109C6.2401 0 5.9601 0 5.4 0C5.4 0 1.6 0 1.6 0Z" fill="none" stroke-width="2" stroke="#D9E3E3" stroke-linecap="round" stroke-linejoin="round" transform="translate(14 14)" />
    <path d="M1.6 0C1.03995 0 0.75992 0 0.54601 0.109C0.35785 0.2049 0.20487 0.3578 0.10899 0.546C0 0.7599 0 1.0399 0 1.6C0 1.6 0 5.4 0 5.4C0 5.9601 0 6.2401 0.10899 6.454C0.20487 6.6422 0.35785 6.7951 0.54601 6.891C0.75992 7 1.03995 7 1.6 7C1.6 7 5.4 7 5.4 7C5.96005 7 6.24008 7 6.45399 6.891C6.64215 6.7951 6.79513 6.6422 6.89101 6.454C7 6.2401 7 5.9601 7 5.4C7 5.4 7 1.6 7 1.6C7 1.0399 7 0.7599 6.89101 0.546C6.79513 0.3578 6.64215 0.2049 6.45399 0.109C6.24008 0 5.96005 0 5.4 0C5.4 0 1.6 0 1.6 0Z" fill="none" stroke-width="2" stroke="#D9E3E3" stroke-linecap="round" stroke-linejoin="round" transform="translate(3 14)" />
  </g>
</svg>