<?xml version="1.0" encoding="utf-8"?>
<svg width="50" height="50" viewBox="0 0 50 50" fill="none" xmlns="http://www.w3.org/2000/svg">
  <g>
    <path d="M3.33333 0C2.16656 0 1.58317 0 1.13752 0.227062C0.745521 0.426813 0.426813 0.745521 0.227062 1.13752C0 1.58317 0 2.16656 0 3.33333C0 3.33333 0 11.25 0 11.25C0 12.4168 0 13.0002 0.227062 13.4458C0.426813 13.8378 0.745521 14.1565 1.13752 14.3563C1.58317 14.5833 2.16656 14.5833 3.33333 14.5833C3.33333 14.5833 11.25 14.5833 11.25 14.5833C12.4168 14.5833 13.0002 14.5833 13.4458 14.3563C13.8378 14.1565 14.1565 13.8378 14.3563 13.4458C14.5833 13.0002 14.5833 12.4168 14.5833 11.25C14.5833 11.25 14.5833 3.33333 14.5833 3.33333C14.5833 2.16656 14.5833 1.58317 14.3563 1.13752C14.1565 0.745521 13.8378 0.426813 13.4458 0.227062C13.0002 0 12.4168 0 11.25 0C11.25 0 3.33333 0 3.33333 0Z" fill="none" stroke-width="2" stroke="#000000" stroke-linecap="round" stroke-linejoin="round" transform="translate(6.25 6.25)" />
    <path d="M3.33334 0C2.16646 0 1.58313 0 1.1375 0.227062C0.745417 0.426813 0.426874 0.745521 0.227083 1.13752C0 1.58317 0 2.16656 0 3.33333C0 3.33333 0 11.25 0 11.25C0 12.4168 0 13.0002 0.227083 13.4458C0.426874 13.8378 0.745417 14.1565 1.1375 14.3563C1.58313 14.5833 2.16646 14.5833 3.33334 14.5833C3.33334 14.5833 11.25 14.5833 11.25 14.5833C12.4169 14.5833 13.0002 14.5833 13.4458 14.3563C13.8379 14.1565 14.1565 13.8378 14.3563 13.4458C14.5833 13.0002 14.5833 12.4168 14.5833 11.25C14.5833 11.25 14.5833 3.33333 14.5833 3.33333C14.5833 2.16656 14.5833 1.58317 14.3563 1.13752C14.1565 0.745521 13.8379 0.426813 13.4458 0.227062C13.0002 0 12.4169 0 11.25 0C11.25 0 3.33334 0 3.33334 0Z" fill="none" stroke-width="2" stroke="#000000" stroke-linecap="round" stroke-linejoin="round" transform="translate(29.167 6.25)" />
    <path d="M3.33334 0C2.16646 0 1.58313 0 1.1375 0.227083C0.745417 0.426874 0.426874 0.745417 0.227083 1.1375C0 1.58313 0 2.16646 0 3.33334C0 3.33334 0 11.25 0 11.25C0 12.4169 0 13.0002 0.227083 13.4458C0.426874 13.8379 0.745417 14.1565 1.1375 14.3563C1.58313 14.5833 2.16646 14.5833 3.33334 14.5833C3.33334 14.5833 11.25 14.5833 11.25 14.5833C12.4169 14.5833 13.0002 14.5833 13.4458 14.3563C13.8379 14.1565 14.1565 13.8379 14.3563 13.4458C14.5833 13.0002 14.5833 12.4169 14.5833 11.25C14.5833 11.25 14.5833 3.33334 14.5833 3.33334C14.5833 2.16646 14.5833 1.58313 14.3563 1.1375C14.1565 0.745417 13.8379 0.426874 13.4458 0.227083C13.0002 0 12.4169 0 11.25 0C11.25 0 3.33334 0 3.33334 0Z" fill="none" stroke-width="2" stroke="#000000" stroke-linecap="round" stroke-linejoin="round" transform="translate(29.167 29.167)" />
    <path d="M3.33333 0C2.16656 0 1.58317 0 1.13752 0.227083C0.745521 0.426874 0.426813 0.745417 0.227062 1.1375C0 1.58313 0 2.16646 0 3.33334C0 3.33334 0 11.25 0 11.25C0 12.4169 0 13.0002 0.227062 13.4458C0.426813 13.8379 0.745521 14.1565 1.13752 14.3563C1.58317 14.5833 2.16656 14.5833 3.33333 14.5833C3.33333 14.5833 11.25 14.5833 11.25 14.5833C12.4168 14.5833 13.0002 14.5833 13.4458 14.3563C13.8378 14.1565 14.1565 13.8379 14.3563 13.4458C14.5833 13.0002 14.5833 12.4169 14.5833 11.25C14.5833 11.25 14.5833 3.33334 14.5833 3.33334C14.5833 2.16646 14.5833 1.58313 14.3563 1.1375C14.1565 0.745417 13.8378 0.426874 13.4458 0.227083C13.0002 0 12.4168 0 11.25 0C11.25 0 3.33333 0 3.33333 0Z" fill="none" stroke-width="2" stroke="#000000" stroke-linecap="round" stroke-linejoin="round" transform="translate(6.25 29.167)" />
  </g>
</svg>