<?xml version="1.0" encoding="utf-8"?>
<svg width="24" height="24" viewBox="0 0 24 24" fill="none" xmlns="http://www.w3.org/2000/svg">
  <g>
    <path d="M7 12.5C7 12.5 5.5 12.5 5.5 12.5C4.10444 12.5 3.40665 12.5 2.83886 12.6722C1.56045 13.06 0.56004 14.0605 0.17224 15.3389C0 15.9067 0 16.6044 0 18M12.5 4.5C12.5 6.98528 10.4853 9 8 9C5.51472 9 3.5 6.98528 3.5 4.5C3.5 2.01472 5.51472 0 8 0C10.4853 0 12.5 2.01472 12.5 4.5ZM9 18C9 18 12.1014 17.1139 12.1014 17.1139C12.2499 17.0715 12.3241 17.0502 12.3934 17.0184C12.4549 16.9902 12.5134 16.9558 12.5679 16.9158C12.6293 16.8707 12.6839 16.8161 12.7932 16.7068C12.7932 16.7068 19.25 10.25 19.25 10.25C19.9404 9.55968 19.9404 8.44028 19.25 7.74998C18.5597 7.05958 17.4404 7.05958 16.75 7.74998C16.75 7.74998 10.2932 14.2068 10.2932 14.2068C10.1839 14.3161 10.1293 14.3707 10.0842 14.4321C10.0442 14.4866 10.0098 14.5451 9.9816 14.6066C9.9497 14.6759 9.9285 14.7501 9.8861 14.8987C9.8861 14.8987 9 18 9 18Z" fill="none" stroke-width="2" stroke="#D9E3E3" stroke-linecap="round" stroke-linejoin="round" transform="translate(2 3)" />
  </g>
</svg>