<?xml version="1.0" encoding="utf-8"?>
<svg width="45" height="45" viewBox="0 0 45 45" fill="none" xmlns="http://www.w3.org/2000/svg">
  <defs>
    <clipPath id="clip_path_1">
      <rect width="45" height="45" />
    </clipPath>
  </defs>
  <g clip-path="url(#clip_path_1)">
    <rect width="33" height="34" transform="translate(6 9)" />
    <path d="M44.9993 24.5349C44.9993 24.5349 44.9993 26.2599 44.9993 26.2599C44.997 30.3032 43.6877 34.2375 41.2667 37.4758C38.8459 40.7143 35.443 43.0834 31.5657 44.2297C27.6882 45.3761 23.5442 45.2385 19.7514 43.8373C15.9587 42.4361 12.7205 39.8464 10.5198 36.4545C8.31916 33.0626 7.27388 29.0501 7.53993 25.0155C7.80595 20.981 9.36905 17.1406 11.9961 14.067C14.6231 10.9934 18.1733 8.85131 22.1171 7.96024C26.061 7.06916 30.1873 7.47685 33.8805 9.12246M11.6183 14.9666C11.6183 14.9666 12.7948 13.7051 12.7948 13.7051C15.5539 10.7495 19.1947 8.76511 23.1738 8.04788C27.1529 7.33038 31.2574 7.91855 34.8749 9.72447C38.4926 11.5305 41.4294 14.4573 43.2477 18.0688C45.0659 21.6802 45.668 25.7827 44.9642 29.7642C44.2604 33.7457 42.2883 37.3931 39.3422 40.1624C36.3961 42.9316 32.6337 44.6743 28.6163 45.1306C24.5988 45.5869 20.5415 44.7323 17.0494 42.6942C13.5573 40.6562 10.8175 37.5439 9.2388 33.8216M26.6352 26.6941L35.6003 17.8553Q35.6354 17.8207 35.663 17.78Q35.6907 17.7392 35.7098 17.6938Q35.729 17.6485 35.739 17.6002Q35.7489 17.552 35.7493 17.5028Q35.7496 17.4535 35.7403 17.4052Q35.7311 17.3568 35.7126 17.3112Q35.694 17.2655 35.667 17.2244Q35.6399 17.1833 35.6053 17.1482Q35.5355 17.0774 35.4439 17.0387Q35.3523 16.9999 35.2528 16.9992Q35.1534 16.9985 35.0612 17.0359Q34.9691 17.0734 34.8982 17.1432L25.9387 25.9765L17.8581 17.651Q17.8238 17.6157 17.7832 17.5877Q17.7427 17.5597 17.6975 17.5402Q17.6523 17.5207 17.6041 17.5103Q17.556 17.5 17.5067 17.4993Q17.4575 17.4985 17.4091 17.5074Q17.3606 17.5163 17.3148 17.5345Q17.2691 17.5526 17.2277 17.5794Q17.1864 17.6061 17.151 17.6404Q17.1157 17.6747 17.0877 17.7153Q17.0598 17.7558 17.0402 17.801Q17.0207 17.8462 17.0104 17.8944Q17.0001 17.9425 16.9993 17.9918Q16.9986 18.041 17.0075 18.0894Q17.0164 18.1379 17.0345 18.1837Q17.0527 18.2294 17.0794 18.2708Q17.1062 18.3121 17.1405 18.3475L25.2266 26.6786L17.1482 34.6432Q17.0774 34.713 17.0387 34.8046Q17 34.8962 16.9993 34.9957Q16.9986 35.0951 17.036 35.1873Q17.0734 35.2794 17.1432 35.3503Q17.1778 35.3853 17.2186 35.413Q17.2593 35.4406 17.3047 35.4598Q17.35 35.479 17.3983 35.4889Q17.4465 35.4989 17.4957 35.4992Q17.545 35.4996 17.5933 35.4903Q17.6417 35.481 17.6873 35.4625Q17.733 35.444 17.7741 35.4169Q17.8152 35.3899 17.8503 35.3553L25.9231 27.3962L33.6405 35.3475Q33.6748 35.3828 33.7153 35.4108Q33.7559 35.4387 33.8011 35.4583Q33.8463 35.4778 33.8944 35.4881Q33.9426 35.4984 33.9918 35.4992Q34.0411 35.4999 34.0895 35.491Q34.1379 35.4821 34.1837 35.464Q34.2295 35.4458 34.2708 35.4191Q34.3122 35.3923 34.3475 35.358Q34.3829 35.3237 34.4108 35.2832Q34.4388 35.2427 34.4583 35.1974Q34.4778 35.1522 34.4882 35.1041Q34.4985 35.0559 34.4992 35.0067Q34.5 34.9575 34.4911 34.909Q34.4822 34.8606 34.464 34.8148Q34.4459 34.769 34.4191 34.7277Q34.3924 34.6863 34.3581 34.651L26.6352 26.6941Z" fill="none" stroke-width="1.5" stroke="#C12A6E" stroke-linecap="round" stroke-linejoin="round" transform="translate(-3.749 -3.749)" />
  </g>
</svg>