<?xml version="1.0" encoding="utf-8"?>
<svg width="54.501" height="54.501" viewBox="0 0 54.501 54.501" fill="none" xmlns="http://www.w3.org/2000/svg">
  <path d="M44.9992 25.0364C44.9992 25.0364 44.9992 26.7614 44.9992 26.7614C44.997 30.8046 43.6877 34.7389 41.2667 37.9772C38.8459 41.2157 35.4429 43.5848 31.5656 44.7312C27.6881 45.8775 23.5442 45.7399 19.7514 44.3387C15.9586 42.9375 12.7205 40.3478 10.5198 36.9559C8.31912 33.564 7.27385 29.5515 7.53989 25.5169C7.80592 21.4825 9.36901 17.642 11.996 14.5684C14.623 11.4948 18.1732 9.35275 22.1171 8.46167C26.061 7.5706 30.1873 7.97828 33.8805 9.62389M11.6183 14.9666C11.6183 14.9666 12.7948 13.7051 12.7948 13.7051C15.5539 10.7495 19.1947 8.76511 23.1738 8.04788C27.1529 7.33038 31.2574 7.91855 34.8749 9.72447C38.4926 11.5305 41.4294 14.4573 43.2477 18.0688C45.0659 21.6802 45.668 25.7827 44.9642 29.7642C44.2604 33.7457 42.2883 37.3931 39.3422 40.1624C36.3961 42.9316 32.6337 44.6743 28.6163 45.1306C24.5988 45.5869 20.5415 44.7323 17.0494 42.6942C13.5573 40.6562 10.8175 37.5439 9.2388 33.8216M26.6165 13.5738L26.6284 13.5279Q26.6409 13.4802 26.6437 13.4311Q26.6466 13.3819 26.6399 13.3331Q26.6331 13.2844 26.6169 13.2378Q26.6008 13.1913 26.5759 13.1488Q26.551 13.1064 26.5182 13.0696Q26.4855 13.0328 26.4463 13.003Q26.407 12.9733 26.3627 12.9519Q26.3184 12.9304 26.2707 12.918Q26.1745 12.8929 26.0759 12.9065Q25.9774 12.9202 25.8916 12.9705Q25.8059 13.0208 25.7458 13.1001Q25.6858 13.1794 25.6608 13.2757L25.6488 13.3216Q25.6364 13.3692 25.6335 13.4184Q25.6306 13.4676 25.6374 13.5163Q25.6441 13.5651 25.6603 13.6116Q25.6764 13.6582 25.7013 13.7006Q25.7262 13.7431 25.759 13.7799Q25.7917 13.8167 25.831 13.8464Q25.8702 13.8761 25.9146 13.8976Q25.9589 13.9191 26.0065 13.9315Q26.1028 13.9566 26.2013 13.943Q26.2998 13.9293 26.3856 13.879Q26.4714 13.8287 26.5314 13.7494Q26.5914 13.67 26.6165 13.5738ZM26.652 39.3955L26.652 19.3941Q26.6519 19.3448 26.6423 19.2965Q26.6327 19.2482 26.6139 19.2027Q26.595 19.1572 26.5677 19.1163Q26.5403 19.0753 26.5055 19.0405Q26.4707 19.0057 26.4297 18.9783Q26.3888 18.951 26.3433 18.9321Q26.2978 18.9133 26.2495 18.9037Q26.2012 18.8941 26.152 18.8941Q26.1027 18.8941 26.0544 18.9037Q26.0061 18.9133 25.9606 18.9321Q25.9151 18.951 25.8742 18.9783Q25.8332 19.0057 25.7984 19.0405Q25.7636 19.0753 25.7362 19.1163Q25.7089 19.1572 25.69 19.2027Q25.6712 19.2482 25.6616 19.2965Q25.6519 19.3448 25.652 19.3941L25.652 39.3955Q25.6519 39.4448 25.6616 39.4931Q25.6712 39.5414 25.69 39.5869Q25.7089 39.6324 25.7362 39.6733Q25.7636 39.7143 25.7984 39.7491Q25.8332 39.7839 25.8742 39.8113Q25.9151 39.8386 25.9606 39.8575Q26.0061 39.8763 26.0544 39.8859Q26.1027 39.8955 26.152 39.8955Q26.2012 39.8955 26.2495 39.8859Q26.2978 39.8763 26.3433 39.8575Q26.3888 39.8386 26.4297 39.8113Q26.4707 39.7839 26.5055 39.7491Q26.5403 39.7143 26.5677 39.6733Q26.595 39.6324 26.6139 39.5869Q26.6327 39.5414 26.6423 39.4931Q26.6519 39.4448 26.652 39.3955Z" fill="none" stroke-width="1.5" stroke="#132C9A" stroke-linecap="round" stroke-linejoin="round" transform="translate(0.75 0.75)" />
</svg>