<?xml version="1.0" encoding="utf-8"?>
<svg width="25" height="25" viewBox="0 0 25 25" fill="none" xmlns="http://www.w3.org/2000/svg">
  <g>
    <path d="M13.5417 3.125L0 3.125M0 3.125L3.64583 0M0 3.125L3.64583 6.25" fill="none" stroke-width="2" stroke="#F1F7F7" stroke-linecap="round" stroke-linejoin="round" transform="translate(2.083 9.375)" />
    <path d="M0 5.20833C0.0126143 2.94268 0.113083 1.71569 0.913479 0.915292C1.8288 0 3.30193 0 6.24818 0C6.24818 0 7.28984 0 7.28984 0C10.2361 0 11.7093 0 12.6245 0.915292C13.5398 1.83058 13.5398 3.30372 13.5398 6.25C13.5398 6.25 13.5398 14.5833 13.5398 14.5833C13.5398 17.5296 13.5398 19.0027 12.6245 19.918C11.8241 20.7184 10.5971 20.819 8.3313 20.8316M0 15.625C0.0126143 17.8906 0.113083 19.1176 0.913479 19.918C1.58151 20.586 2.54662 20.7666 4.16464 20.8153" fill="none" stroke-width="2" stroke="#F1F7F7" stroke-linecap="round" transform="translate(9.377 2.083)" />
  </g>
</svg>