<?xml version="1.0" encoding="utf-8"?>
<svg width="26" height="31" viewBox="0 0 26 31" fill="none" xmlns="http://www.w3.org/2000/svg">
  <path d="M22.5882 12.325C22.5882 12.325 22.5882 6.96 22.5882 6.96C22.5882 4.52377 22.5882 3.30565 22.1266 2.37514C21.7206 1.55663 21.0727 0.89117 20.2758 0.474121C19.3697 0 18.1838 0 15.8118 0C15.8118 0 6.77647 0 6.77647 0C4.40448 0 3.21848 0 2.31251 0.474121C1.51559 0.89117 0.867671 1.55663 0.461619 2.37514C0 3.30565 0 4.52377 0 6.96C0 6.96 0 22.04 0 22.04C0 24.4763 0 25.6943 0.461619 26.6249C0.867671 27.4434 1.51559 28.1088 2.31251 28.5258C3.21848 29 4.40448 29 6.77647 29C6.77647 29 11.2941 29 11.2941 29M14.1176 13.05L5.64705 13.05M8.47058 18.85L5.64705 18.85M16.9412 7.25L5.64705 7.25M19.7647 27.55L19.7647 18.85M15.5294 23.2L24 23.2" fill="none" stroke-width="2" stroke="#001460" stroke-linecap="round" stroke-linejoin="round" transform="translate(1 1)" />
</svg>