<?xml version="1.0" encoding="utf-8"?>
<svg width="24" height="24" viewBox="0 0 24 24" fill="none" xmlns="http://www.w3.org/2000/svg">
  <g>
    <g fill="#F1F7F7" transform="translate(7 12)">
      <path d="M0 0L9.95625 0L9.95625 1.125L0 1.125L0 0L0 0ZM0 4.94983L6.09375 4.94983L6.09375 6.07483L0 6.07483L0 4.94983L0 4.94983Z" />
      <path d="M2 0L0 0L0 1.125L9.95625 1.125L9.95625 0L2 0ZM2 4.94983L0 4.94983L0 6.07483L6.09375 6.07483L6.09375 4.94983L2 4.94983Z" fill="#F1F7F7" fill-rule="evenodd" />
    </g>
    <g fill="#F1F7F7" fill-rule="evenodd" transform="translate(3 4)">
      <path d="M16.5562 19.35C16.5562 19.35 2.19375 19.35 2.19375 19.35C1.89375 19.35 1.6125 19.2937 1.33125 19.1812C1.06875 19.0688 0.825 18.9187 0.6375 18.7125C0.43125 18.5063 0.28125 18.2812 0.16875 18.0187C0.0562499 17.7375 0 17.4562 0 17.1563C0 17.1563 0 2.2125 0 2.2125C0 1.9125 0.0562501 1.63125 0.16875 1.35C0.28125 1.0875 0.43125 0.84375 0.6375 0.65625C0.84375 0.45 1.06875 0.3 1.33125 0.1875C1.6125 0.0749998 1.89375 0.0187497 2.19375 0.0187497C2.19375 0.0187497 4.36875 0.0187497 4.36875 0.0187497L4.36875 1.125C4.36875 1.125 2.19375 1.125 2.19375 1.125C1.59375 1.125 1.0875 1.6125 1.0875 2.23125C1.0875 2.23125 1.0875 17.175 1.0875 17.175C1.0875 17.775 1.575 18.2812 2.19375 18.2812C2.19375 18.2812 16.5375 18.2812 16.5375 18.2812C17.1375 18.2812 17.6437 17.7937 17.6437 17.175C17.6437 17.175 17.6437 2.2125 17.6437 2.2125C17.6437 1.6125 17.1563 1.10625 16.5375 1.10625C16.5375 1.10625 14.3812 1.10625 14.3812 1.10625L14.3812 0C14.3812 0 16.5562 0 16.5562 0C16.8562 0 17.1375 0.0562496 17.4187 0.16875C17.6812 0.28125 17.925 0.43125 18.1125 0.6375C18.3187 0.84375 18.4687 1.06875 18.5812 1.33125C18.6937 1.6125 18.75 1.89375 18.75 2.19375C18.75 2.19375 18.75 17.1375 18.75 17.1375C18.75 17.4375 18.6937 17.7187 18.5812 18C18.4687 18.2625 18.3187 18.5062 18.1125 18.6937C17.9062 18.9 17.6812 19.05 17.4187 19.1625C17.1375 19.2937 16.8562 19.35 16.5562 19.35C16.5562 19.35 16.5562 19.35 16.5562 19.35Z" />
      <path d="M14.3812 0L14.3812 1.10625L16.5375 1.10625C16.6947 1.10625 16.8434 1.13893 16.9778 1.19752C16.9862 1.20116 16.9945 1.2049 17.0028 1.20875C17.2404 1.31946 17.4309 1.51201 17.5406 1.7475C17.5445 1.75575 17.5482 1.76406 17.5519 1.77241C17.6111 1.90804 17.6437 2.05713 17.6437 2.2125L17.6437 17.175C17.6437 17.3138 17.6183 17.4459 17.572 17.5675C17.5688 17.5758 17.5656 17.5841 17.5622 17.5924C17.3957 17.9994 16.9937 18.2812 16.5375 18.2812L2.19375 18.2812C2.03743 18.2812 1.88948 18.2489 1.75566 18.191C1.74761 18.1875 1.73961 18.1839 1.73166 18.1802C1.48406 18.0658 1.28729 17.8627 1.17916 17.6146C1.17563 17.6065 1.17219 17.5983 1.16885 17.5901C1.11632 17.4613 1.0875 17.3209 1.0875 17.175L1.0875 2.23125C1.0875 2.07141 1.12128 1.92032 1.18174 1.78414C1.18539 1.77593 1.18913 1.76778 1.19296 1.75968C1.30663 1.51971 1.50402 1.32845 1.7446 1.22088C1.75286 1.21719 1.76116 1.2136 1.76951 1.21011C1.90088 1.1552 2.04441 1.125 2.19375 1.125L4.36875 1.125L4.36875 0.0187497L2.19375 0.0187497C1.89375 0.0187497 1.6125 0.0749998 1.33125 0.1875C1.06875 0.3 0.84375 0.45 0.6375 0.65625C0.43125 0.84375 0.28125 1.0875 0.16875 1.35C0.0562501 1.63125 0 1.9125 0 2.2125L0 17.1563C0 17.4562 0.0562499 17.7375 0.16875 18.0187C0.28125 18.2812 0.43125 18.5063 0.6375 18.7125C0.825 18.9187 1.06875 19.0688 1.33125 19.1812C1.6125 19.2937 1.89375 19.35 2.19375 19.35L16.5562 19.35C16.8562 19.35 17.1375 19.2937 17.4187 19.1625C17.6812 19.05 17.9062 18.9 18.1125 18.6937C18.3187 18.5062 18.4687 18.2625 18.5812 18C18.6937 17.7187 18.75 17.4375 18.75 17.1375L18.75 2.19375C18.75 1.89375 18.6937 1.6125 18.5812 1.33125C18.4687 1.06875 18.3187 0.84375 18.1125 0.6375C17.925 0.43125 17.6812 0.28125 17.4187 0.16875C17.1375 0.0562496 16.8562 0 16.5562 0L14.3812 0Z" fill="#F1F7F7" fill-rule="evenodd" />
    </g>
    <g fill="#F1F7F7" transform="translate(7 1)">
      <path d="M11.025 6.65625L0 6.65625C0 6.65625 0 3.05625 0 3.05625C0 2.2875 0.61875 1.66875 1.3875 1.66875C1.3875 1.66875 2.8125 1.66875 2.8125 1.66875C3.31875 0.65625 4.36875 0 5.53125 0C6.69375 0 7.74375 0.65625 8.25 1.66875C8.25 1.66875 9.675 1.66875 9.675 1.66875C10.4438 1.66875 11.0625 2.2875 11.0625 3.05625C11.0625 3.05625 11.025 6.65625 11.025 6.65625L11.025 6.65625ZM1.10624 5.54983L9.93749 5.54983C9.93749 5.54983 9.93749 3.05608 9.93749 3.05608C9.93749 2.90608 9.80624 2.77483 9.65624 2.77483C9.65624 2.77483 7.46249 2.77483 7.46249 2.77483C7.46249 2.77483 7.33124 2.39983 7.33124 2.39983C7.06874 1.63108 6.33749 1.10608 5.5125 1.10608C4.68749 1.10608 3.95625 1.63108 3.69374 2.39983C3.69374 2.39983 3.56249 2.77483 3.56249 2.77483C3.56249 2.77483 1.36874 2.77483 1.36874 2.77483C1.21874 2.77483 1.08749 2.90608 1.08749 3.05608C1.08749 3.05608 1.08749 5.54983 1.08749 5.54983L1.10624 5.54983Z" />
      <path d="M1.83073 1.66875L1.3875 1.66875C0.61875 1.66875 0 2.2875 0 3.05625L0 6.65625L11.025 6.65625L11.0625 3.05625C11.0625 2.2875 10.4438 1.66875 9.675 1.66875L8.25 1.66875C8.07868 1.3261 7.84508 1.02425 7.56592 0.774829C7.02019 0.287233 6.30034 0 5.53125 0C4.76216 0 4.04232 0.287233 3.49658 0.774829C3.21742 1.02425 2.98382 1.3261 2.8125 1.66875L1.83073 1.66875ZM7.46249 2.77483L7.33124 2.39983C7.06874 1.63108 6.33749 1.10608 5.5125 1.10608C4.68749 1.10608 3.95625 1.63108 3.69374 2.39983L3.56249 2.77483L1.36874 2.77483C1.21874 2.77483 1.08749 2.90608 1.08749 3.05608L1.08749 5.54983L1.10624 5.54983L9.93749 5.54983L9.93749 3.05608C9.93749 2.90608 9.80624 2.77483 9.65624 2.77483L7.46249 2.77483Z" fill="#F1F7F7" fill-rule="evenodd" />
    </g>
  </g>
</svg>