<?xml version="1.0" encoding="utf-8"?>
<svg width="45" height="45" viewBox="0 0 45 45" fill="none" xmlns="http://www.w3.org/2000/svg">
  <g>
    <path d="M0 0L18.668 0L18.668 2.10938L0 2.10938L0 0L0 0ZM0 9.28125L11.4258 9.28125L11.4258 11.3906L0 11.3906L0 9.28125L0 9.28125Z" fill="#030F0F" transform="translate(13 20)" />
    <path d="M31.043 36.2812C31.043 36.2812 4.11328 36.2812 4.11328 36.2812C3.55078 36.2812 3.02344 36.1758 2.49609 35.9648C2.00391 35.7539 1.54688 35.4727 1.19531 35.0859C0.808593 34.6992 0.527344 34.2773 0.316406 33.7852C0.105468 33.2578 0 32.7305 0 32.168C0 32.168 0 4.14844 0 4.14844C0 3.58594 0.105469 3.05859 0.316406 2.53125C0.527344 2.03906 0.808593 1.58203 1.19531 1.23047C1.58203 0.843749 2.00391 0.5625 2.49609 0.351562C3.02344 0.140624 3.55078 0.0351558 4.11328 0.0351558C4.11328 0.0351558 8.19141 0.0351558 8.19141 0.0351558L8.19141 2.10937C8.19141 2.10937 4.11328 2.10937 4.11328 2.10937C2.98828 2.10937 2.03906 3.02344 2.03906 4.18359C2.03906 4.18359 2.03906 32.2031 2.03906 32.2031C2.03906 33.3281 2.95313 34.2773 4.11328 34.2773C4.11328 34.2773 31.0078 34.2773 31.0078 34.2773C32.1328 34.2773 33.082 33.3633 33.082 32.2031C33.082 32.2031 33.082 4.14844 33.082 4.14844C33.082 3.02344 32.168 2.07422 31.0078 2.07422C31.0078 2.07422 26.9648 2.07422 26.9648 2.07422L26.9648 0C26.9648 0 31.043 0 31.043 0C31.6055 0 32.1328 0.105468 32.6602 0.316406C33.1523 0.527344 33.6094 0.808593 33.9609 1.19531C34.3476 1.58203 34.6289 2.00391 34.8398 2.49609C35.0508 3.02344 35.1562 3.55078 35.1562 4.11328C35.1562 4.11328 35.1562 32.1328 35.1562 32.1328C35.1562 32.6953 35.0508 33.2227 34.8398 33.75C34.6289 34.2422 34.3476 34.6992 33.9609 35.0508C33.5742 35.4375 33.1523 35.7187 32.6602 35.9297C32.1328 36.1758 31.6055 36.2812 31.043 36.2812C31.043 36.2812 31.043 36.2812 31.043 36.2812Z" fill="#030F0F" fill-rule="evenodd" transform="translate(5 6)" />
    <path d="M20.6719 12.4805L0 12.4805C0 12.4805 0 5.73047 0 5.73047C0 4.28906 1.16016 3.12891 2.60156 3.12891C2.60156 3.12891 5.27344 3.12891 5.27344 3.12891C6.22266 1.23047 8.19141 0 10.3711 0C12.5508 0 14.5195 1.23047 15.4688 3.12891C15.4688 3.12891 18.1406 3.12891 18.1406 3.12891C19.582 3.12891 20.7422 4.28906 20.7422 5.73047C20.7422 5.73047 20.6719 12.4805 20.6719 12.4805L20.6719 12.4805ZM2.07422 10.4063L18.6328 10.4063C18.6328 10.4063 18.6328 5.73047 18.6328 5.73047C18.6328 5.44922 18.3867 5.20312 18.1055 5.20312C18.1055 5.20312 13.9922 5.20312 13.9922 5.20312C13.9922 5.20312 13.7461 4.5 13.7461 4.5C13.2539 3.05859 11.8828 2.07422 10.3359 2.07422C8.78907 2.07422 7.41797 3.05859 6.92579 4.5C6.92579 4.5 6.67969 5.20312 6.67969 5.20312C6.67969 5.20312 2.56641 5.20312 2.56641 5.20312C2.28516 5.20312 2.03906 5.44922 2.03906 5.73047C2.03906 5.73047 2.03906 10.4062 2.03906 10.4062L2.07422 10.4063Z" fill="#030F0F" transform="translate(13 0)" />
  </g>
</svg>