<?xml version="1.0" encoding="utf-8"?>
<svg width="25" height="31" viewBox="0 0 25 31" fill="none" xmlns="http://www.w3.org/2000/svg">
  <path d="M12.7778 13.05L5.1111 13.05M7.66665 18.85L5.1111 18.85M15.3333 7.25L5.1111 7.25M20.4444 12.325C20.4444 12.325 20.4444 6.96 20.4444 6.96C20.4444 4.52377 20.4444 3.30565 20.0266 2.37514C19.6591 1.55663 19.0728 0.89117 18.3514 0.474121C17.5314 0 16.458 0 14.3111 0C14.3111 0 6.13333 0 6.13333 0C3.98646 0 2.91303 0 2.09304 0.474121C1.37175 0.89117 0.785322 1.55663 0.417808 2.37514C0 3.30565 0 4.52377 0 6.96C0 6.96 0 22.04 0 22.04C0 24.4763 0 25.6943 0.417808 26.6249C0.785322 27.4434 1.37175 28.1088 2.09304 28.5258C2.91303 29 3.98646 29 6.13333 29C6.13333 29 9.58333 29 9.58333 29M23 29L21.0833 26.825M22.3611 23.2C22.3611 26.0029 20.3589 28.275 17.8889 28.275C15.419 28.275 13.4167 26.0029 13.4167 23.2C13.4167 20.3972 15.419 18.125 17.8889 18.125C20.3589 18.125 22.3611 20.3972 22.3611 23.2Z" fill="none" stroke-width="2" stroke="#8F0042" stroke-linecap="round" stroke-linejoin="round" transform="translate(1 1)" />
</svg>