<?xml version="1.0" encoding="utf-8"?>
<svg width="45" height="45" viewBox="0 0 45 45" fill="none" xmlns="http://www.w3.org/2000/svg">
  <g>
    <path d="M37.5 17.0357C37.5 17.0357 37.5 18.7607 37.5 18.7607C37.4977 22.8039 36.1884 26.7382 33.7674 29.9766C31.3466 33.2151 27.9437 35.5841 24.0664 36.7305C20.1889 37.8769 16.0449 37.7392 12.2521 36.3381C8.45939 34.9369 5.22121 32.3471 3.02055 28.9552C0.819877 25.5634 -0.225398 21.5509 0.0406461 17.5163C0.306671 13.4818 1.86976 9.64135 4.49677 6.56775C7.12378 3.49414 10.674 1.35208 14.6179 0.46101C18.5617 -0.430065 22.6881 -0.0223842 26.3812 1.62323M37.5 3.75L18.75 22.5187L13.125 16.8937" fill="none" stroke-width="2" stroke="#139A86" stroke-linecap="round" stroke-linejoin="round" transform="translate(3.75 3.75)" />
  </g>
</svg>