<?xml version="1.0" encoding="utf-8"?>
<svg width="25" height="31" viewBox="0 0 25 31" fill="none" xmlns="http://www.w3.org/2000/svg">
  <path d="M14.375 0.390823C14.375 0.390823 14.375 6.38011 14.375 6.38011C14.375 7.19218 14.375 7.59822 14.5317 7.90839C14.6695 8.18122 14.8893 8.40305 15.1599 8.54207C15.4674 8.7001 15.8699 8.7001 16.675 8.7001C16.675 8.7001 22.6126 8.7001 22.6126 8.7001M14.375 21.75L5.75 21.75M17.25 15.95L5.75 15.95M23 22.04C23 24.4763 23 25.6943 22.5299 26.6249C22.1165 27.4434 21.4568 28.1088 20.6454 28.5258C19.7228 29 18.5153 29 16.1 29C16.1 29 6.9 29 6.9 29C4.48477 29 3.27715 29 2.35467 28.5258C1.54321 28.1088 0.883488 27.4434 0.470034 26.6249C0 25.6943 0 24.4763 0 22.04C0 22.04 0 6.96 0 6.96C0 4.52377 0 3.30565 0.470034 2.37514C0.883488 1.55663 1.54321 0.89117 2.35467 0.474121C3.27715 0 4.48477 0 6.9 0C6.9 0 11.517 0 11.517 0C12.5717 0 13.0991 0 13.5954 0.120191C14.0355 0.226751 14.4561 0.402506 14.842 0.641016C15.2772 0.91002 15.6501 1.28619 16.396 2.03854C16.396 2.03854 20.979 6.66146 20.979 6.66146C21.7249 7.41381 22.0978 7.78998 22.3645 8.22897C22.601 8.61816 22.7752 9.04249 22.8808 9.48634C23 9.98698 23 10.519 23 11.5829C23 11.5829 23 22.04 23 22.04Z" fill="none" stroke-width="2" stroke="#E85B01" stroke-linecap="round" stroke-linejoin="round" transform="translate(1 1)" />
</svg>