<?xml version="1.0" encoding="utf-8"?>
<svg width="50" height="50" viewBox="0 0 50 50" fill="none" xmlns="http://www.w3.org/2000/svg">
  <g>
    <path d="M4.16663 41.2863C5.422 41.6667 7.11761 41.6667 9.99992 41.6667C9.99992 41.6667 31.6666 41.6667 31.6666 41.6667C34.5489 41.6667 36.2445 41.6667 37.4999 41.2863M4.16671 41.2863C3.89754 41.2048 3.6486 41.1058 3.41256 40.9854C2.23654 40.3863 1.28042 39.4302 0.681209 38.2542C0 36.9171 0 35.1671 0 31.6667C0 31.6667 0 10 0 10C0 6.49967 0 4.7495 0.681209 3.41256C1.28042 2.23654 2.23654 1.28042 3.41256 0.681209C4.7495 0 6.49967 0 10 0C10 0 31.6667 0 31.6667 0C35.1671 0 36.9171 0 38.2542 0.681209C39.4302 1.28042 40.3863 2.23654 40.9854 3.41256C41.6667 4.7495 41.6667 6.49967 41.6667 10C41.6667 10 41.6667 31.6667 41.6667 31.6667C41.6667 35.1671 41.6667 36.9171 40.9854 38.2542C40.3863 39.4302 39.4302 40.3863 38.2542 40.9854C38.0181 41.1058 37.7692 41.2048 37.5 41.2863M4.16663 41.2863C4.16731 39.6002 4.17744 38.7081 4.32671 37.9575C4.98427 34.6519 7.56842 32.0677 10.8742 31.4102C11.6791 31.25 12.6472 31.25 14.5833 31.25C14.5833 31.25 27.0833 31.25 27.0833 31.25C29.0193 31.25 29.9874 31.25 30.7924 31.4102C34.098 32.0677 36.6822 34.6519 37.3397 37.9575C37.4891 38.7081 37.4991 39.6002 37.4999 41.2863M29.1667 15.625C29.1667 20.2273 25.4356 23.9583 20.8333 23.9583C16.231 23.9583 12.5 20.2273 12.5 15.625C12.5 11.0226 16.231 7.29167 20.8333 7.29167C25.4356 7.29167 29.1667 11.0226 29.1667 15.625Z" fill="none" stroke-width="2" stroke="#000000" stroke-linecap="round" stroke-linejoin="round" transform="translate(4.167 4.167)" />
  </g>
</svg>