<?xml version="1.0" encoding="utf-8"?>
<svg width="47" height="47" viewBox="0 0 47 47" fill="none" xmlns="http://www.w3.org/2000/svg">
  <g>
    <path d="M13.7083 24.4792C13.7083 24.4792 10.7708 24.4792 10.7708 24.4792C8.03786 24.4792 6.67136 24.4792 5.55943 24.8164C3.05588 25.5758 1.09675 27.5351 0.337303 30.0387C0 31.1506 0 32.517 0 35.25M24.4792 8.8125C24.4792 13.6795 20.5337 17.625 15.6667 17.625C10.7997 17.625 6.85417 13.6795 6.85417 8.8125C6.85417 3.94549 10.7997 0 15.6667 0C20.5337 0 24.4792 3.94549 24.4792 8.8125ZM17.625 35.25C17.625 35.25 23.6986 33.5147 23.6986 33.5147C23.9894 33.4316 24.1347 33.3899 24.2704 33.3277C24.3908 33.2724 24.5054 33.2051 24.6121 33.1267C24.7324 33.0384 24.8393 32.9315 25.0533 32.7174C25.0533 32.7174 37.6979 20.0729 37.6979 20.0729C39.0499 18.721 39.0499 16.5289 37.6979 15.177C36.3461 13.825 34.1541 13.825 32.8021 15.177C32.8021 15.177 20.1575 27.8216 20.1575 27.8216C19.9435 28.0357 19.8365 28.1426 19.7482 28.2628C19.6699 28.3696 19.6025 28.4841 19.5473 28.6045C19.4848 28.7403 19.4433 28.8856 19.3603 29.1766C19.3603 29.1766 17.625 35.25 17.625 35.25Z" fill="none" stroke-width="2" stroke="#030F0F" stroke-linecap="round" stroke-linejoin="round" transform="translate(3.917 5.875)" />
  </g>
</svg>