<?xml version="1.0" encoding="utf-8"?>
<svg width="42" height="47" viewBox="0 0 42 47" fill="none" xmlns="http://www.w3.org/2000/svg">
  <g>
    <path d="M4.79348 14.4615C4.79348 14.4615 6.52265 4.02802 6.52265 4.02802C6.90788 1.70364 8.90767 0 11.2509 0C11.2509 0 27.0968 0 27.0968 0C29.4401 0 31.4399 1.70364 31.8251 4.02802C31.8251 4.02802 33.5543 14.4615 33.5543 14.4615M4.79348 14.4615L33.5543 14.4615M4.79348 14.4615C2.14611 14.4615 0 16.6197 0 19.2821C0 19.2821 0 24.1026 0 24.1026C0 26.7649 2.14611 28.9231 4.79348 28.9231M33.5543 14.4615C36.2018 14.4615 38.3478 16.6197 38.3478 19.2821C38.3478 19.2821 38.3478 24.1026 38.3478 24.1026C38.3478 26.7649 36.2018 28.9231 33.5543 28.9231M33.5543 28.9231L4.79348 28.9231M33.5543 28.9231C33.5543 28.9231 33.5541 32.5387 33.5541 32.5387C33.5541 34.5351 31.9445 36.1538 29.959 36.1538C27.9735 36.1538 26.3641 34.5351 26.3641 32.5387C26.3641 32.5387 26.3641 28.9231 26.3641 28.9231C26.3641 28.9231 33.5543 28.9231 33.5543 28.9231ZM4.79348 28.9231C4.79348 28.9231 4.79348 32.5387 4.79348 32.5387C4.79348 34.5351 6.40301 36.1538 8.38847 36.1538C10.3739 36.1538 11.9835 34.5351 11.9835 32.5387C11.9835 32.5387 11.9835 28.9231 11.9835 28.9231C11.9835 28.9231 4.79348 28.9231 4.79348 28.9231Z" fill="none" stroke-width="2" stroke="#030F0F" transform="translate(1.826 5.423)" />
  </g>
</svg>