<?xml version="1.0" encoding="utf-8"?>
<svg width="54.501" height="54.501" viewBox="0 0 54.501 54.501" fill="none" xmlns="http://www.w3.org/2000/svg">
  <path d="M44.9992 25.0364C44.9992 25.0364 44.9992 26.7614 44.9992 26.7614C44.997 30.8046 43.6877 34.7389 41.2667 37.9772C38.8459 41.2157 35.4429 43.5848 31.5656 44.7312C27.6881 45.8775 23.5442 45.7399 19.7514 44.3387C15.9586 42.9375 12.7205 40.3478 10.5198 36.9559C8.31912 33.564 7.27385 29.5515 7.53989 25.5169C7.80592 21.4825 9.36901 17.642 11.996 14.5684C14.623 11.4948 18.1732 9.35275 22.1171 8.46167C26.061 7.5706 30.1873 7.97828 33.8805 9.62389M11.6183 14.9666C11.6183 14.9666 12.7948 13.7051 12.7948 13.7051C15.5539 10.7495 19.1947 8.76511 23.1738 8.04788C27.1529 7.33038 31.2574 7.91855 34.8749 9.72447C38.4926 11.5305 41.4294 14.4573 43.2477 18.0688C45.0659 21.6802 45.668 25.7827 44.9642 29.7642C44.2604 33.7457 42.2883 37.3931 39.3422 40.1624C36.3961 42.9316 32.6337 44.6743 28.6163 45.1306C24.5988 45.5869 20.5415 44.7323 17.0494 42.6942C13.5573 40.6562 10.8175 37.5439 9.2388 33.8216M25.5259 14.2297L25.5259 34.2311Q25.5259 34.2804 25.5355 34.3287Q25.5451 34.377 25.564 34.4225Q25.5828 34.468 25.6102 34.5089Q25.6376 34.5499 25.6724 34.5847Q25.7072 34.6195 25.7481 34.6469Q25.7891 34.6742 25.8346 34.6931Q25.8801 34.7119 25.9284 34.7215Q25.9767 34.7311 26.0259 34.7311Q26.0752 34.7311 26.1235 34.7215Q26.1718 34.7119 26.2173 34.6931Q26.2628 34.6742 26.3037 34.6469Q26.3447 34.6195 26.3795 34.5847Q26.4143 34.5499 26.4417 34.5089Q26.469 34.468 26.4879 34.4225Q26.5067 34.377 26.5163 34.3287Q26.5259 34.2804 26.5259 34.2311L26.5259 14.2297Q26.5259 14.1804 26.5163 14.1321Q26.5067 14.0838 26.4879 14.0383Q26.469 13.9928 26.4417 13.9519Q26.4143 13.9109 26.3795 13.8761Q26.3447 13.8413 26.3037 13.8139Q26.2628 13.7866 26.2173 13.7677Q26.1718 13.7489 26.1235 13.7393Q26.0752 13.7297 26.0259 13.7297Q25.9767 13.7297 25.9284 13.7393Q25.8801 13.7489 25.8346 13.7677Q25.7891 13.7866 25.7481 13.8139Q25.7072 13.8413 25.6724 13.8761Q25.6376 13.9109 25.6102 13.9519Q25.5828 13.9928 25.564 14.0383Q25.5451 14.0838 25.5355 14.1321Q25.5259 14.1804 25.5259 14.2297ZM25.5605 40.0512L25.5485 40.0971Q25.5361 40.1448 25.5332 40.194Q25.5303 40.2431 25.5371 40.2919Q25.5439 40.3407 25.56 40.3872Q25.5762 40.4337 25.6011 40.4762Q25.626 40.5187 25.6587 40.5555Q25.6914 40.5923 25.7307 40.622Q25.77 40.6517 25.8143 40.6732Q25.8586 40.6947 25.9063 40.7071Q26.0025 40.7322 26.101 40.7185Q26.1995 40.7049 26.2853 40.6545Q26.3711 40.6042 26.4311 40.5249Q26.4911 40.4456 26.5162 40.3494L26.5282 40.3035Q26.5406 40.2558 26.5435 40.2066Q26.5464 40.1575 26.5396 40.1087Q26.5328 40.0599 26.5167 40.0134Q26.5005 39.9669 26.4756 39.9244Q26.4507 39.8819 26.418 39.8451Q26.3853 39.8083 26.346 39.7786Q26.3067 39.7489 26.2624 39.7274Q26.2181 39.7059 26.1704 39.6935Q26.0742 39.6684 25.9757 39.6821Q25.8772 39.6957 25.7914 39.7461Q25.7056 39.7964 25.6456 39.8757Q25.5856 39.955 25.5605 40.0512Z" fill="none" stroke-width="1.5" stroke="#EB9155" stroke-linecap="round" stroke-linejoin="round" transform="translate(0.75 0.75)" />
</svg>